<svg width="823" height="525" viewBox="0 0 823 525" fill="none" xmlns="http://www.w3.org/2000/svg">
<g clip-path="url(#clip0_7_33)">
<path d="M616.411 520.4C605.273 510.85 598.507 495.764 600.281 481.078C602.056 466.392 613.045 452.892 627.3 449.773C641.554 446.654 657.804 455.287 662.133 469.416C664.516 442.176 667.262 413.795 681.535 390.598C694.459 369.594 716.844 354.565 741.104 351.876C765.364 349.187 790.907 359.342 806.037 378.771C821.167 398.199 824.871 426.444 814.275 448.75C806.468 465.182 792.087 477.41 777.018 487.359C728.326 519.236 669.926 532.199 612.564 523.863L616.411 520.4Z" fill="#F2F2F2"/>
<path d="M831.728 361.676C811.71 378.219 793.346 396.722 776.902 416.916C751.166 448.411 730.34 483.723 715.15 521.621C714.038 524.386 718.462 525.589 719.562 522.855C744.416 461.262 784.093 406.975 834.963 364.959C837.248 363.071 833.993 359.804 831.728 361.676Z" fill="white"/>
<path d="M327.067 522.624C342.366 509.507 351.658 488.787 349.221 468.616C346.784 448.445 331.69 429.901 312.112 425.618C292.533 421.334 270.214 433.192 264.267 452.597C260.995 415.184 257.223 376.203 237.619 344.342C219.868 315.492 189.122 294.849 155.801 291.156C122.48 287.463 87.3972 301.411 66.6161 328.096C45.8349 354.782 40.7467 393.576 55.3013 424.213C66.0232 446.782 85.7766 463.578 106.473 477.243C172.503 520.837 254.412 539.019 332.351 527.381" fill="#F2F2F2"/>
<path d="M52.5667 299.136C80.0607 321.859 105.284 347.272 127.871 375.008C150.461 402.716 170.349 432.582 187.257 464.186C196.707 481.915 205.196 500.153 212.687 518.821C214.214 522.618 208.137 524.271 206.627 520.516C193.359 487.605 176.944 456.093 157.618 426.431C138.385 396.877 116.373 369.285 91.889 344.043C78.041 329.774 63.4301 316.287 48.1227 303.646C44.9851 301.053 49.455 296.565 52.5667 299.136L52.5667 299.136Z" fill="white"/>
<path d="M624.5 526.983H259.5V146.998C259.5 66.1535 324.322 0.381802 404 0.381802H480C559.678 0.381802 624.5 66.1535 624.5 146.998V526.983Z" fill="#F2F2F2"/>
<path d="M548.5 526.983H259.5V146.998C259.42 116.02 269.088 85.8254 287.096 60.8097C287.76 59.8917 288.422 58.9855 289.104 58.0893C297.815 46.498 308.18 36.2898 319.859 27.8015C320.518 27.3145 321.181 26.8359 321.853 26.3573C331.625 19.4957 342.196 13.8864 353.325 9.65724C353.986 9.40308 354.659 9.14842 355.332 8.90417C365.397 5.25963 375.83 2.76314 386.44 1.4608C387.098 1.36963 387.773 1.29829 388.448 1.22695C398.787 0.105293 409.215 0.105293 419.554 1.22695C420.227 1.29829 420.902 1.36962 421.568 1.46177C432.175 2.76421 442.606 5.26039 452.668 8.90421C453.341 9.14847 454.014 9.40311 454.677 9.65777C465.669 13.8336 476.115 19.3591 485.783 26.1111C486.455 26.5793 487.127 27.0579 487.79 27.5364C494.336 32.2776 500.485 37.5596 506.173 43.3284C510.735 47.9556 514.986 52.888 518.898 58.0923C519.578 58.9856 520.24 59.8917 520.903 60.8083C538.911 85.8242 548.58 116.02 548.5 146.998V526.983Z" fill="#CCCCCC"/>
<path d="M525 357.03C533.837 357.03 541 349.762 541 340.796C541 331.83 533.837 324.561 525 324.561C516.163 324.561 509 331.83 509 340.796C509 349.762 516.163 357.03 525 357.03Z" fill="#22C55E"/>
<path d="M594.599 515.602H582.339L576.506 467.621L594.601 467.622L594.599 515.602Z" fill="#FFB8B8"/>
<path d="M573.582 512.047H597.226V527.152H558.695C558.695 525.169 559.08 523.205 559.828 521.372C560.576 519.539 561.673 517.874 563.055 516.472C564.437 515.069 566.079 513.956 567.885 513.197C569.691 512.438 571.627 512.047 573.582 512.047Z" fill="#2F2E41"/>
<path d="M655.599 515.602H643.339L637.506 467.621L655.601 467.622L655.599 515.602Z" fill="#FFB8B8"/>
<path d="M634.582 512.047H658.226V527.152H619.695C619.695 525.169 620.08 523.205 620.828 521.372C621.576 519.539 622.673 517.874 624.055 516.472C625.437 515.069 627.079 513.956 628.885 513.197C630.691 512.438 632.627 512.047 634.582 512.047Z" fill="#2F2E41"/>
<path d="M533.098 344.012C532.216 342.693 531.629 341.195 531.38 339.621C531.131 338.048 531.224 336.438 531.654 334.906C532.084 333.373 532.84 331.955 533.869 330.751C534.898 329.547 536.174 328.586 537.608 327.937L579.284 211.388L599.791 222.743L552.206 334.121C553.122 336.638 553.096 339.408 552.133 341.907C551.17 344.406 549.337 346.459 546.982 347.678C544.626 348.897 541.912 349.198 539.353 348.522C536.794 347.846 534.568 346.241 533.098 344.012Z" fill="#FFB8B8"/>
<path d="M649.336 365.912C647.974 365.119 646.799 364.033 645.895 362.73C644.991 361.427 644.38 359.939 644.104 358.37C643.828 356.801 643.895 355.19 644.299 353.65C644.703 352.111 645.435 350.679 646.443 349.458L633.533 226.169L656.87 227.25L662.236 348.521C664.147 350.376 665.32 352.878 665.535 355.552C665.749 358.226 664.989 360.887 663.399 363.03C661.809 365.174 659.499 366.651 656.907 367.182C654.316 367.713 651.622 367.261 649.336 365.912Z" fill="#FFB8B8"/>
<path d="M612.106 189.8C625.67 189.8 636.667 178.642 636.667 164.879C636.667 151.116 625.67 139.958 612.106 139.958C598.541 139.958 587.545 151.116 587.545 164.879C587.545 178.642 598.541 189.8 612.106 189.8Z" fill="#FFB8B8"/>
<path d="M649.18 337.872H575.133L575.222 337.288C575.355 336.414 588.419 249.582 578.784 221.175C577.817 218.384 577.902 215.328 579.022 212.596C580.143 209.864 582.22 207.65 584.853 206.378H584.853C598.625 199.798 625.061 191.695 647.373 211.359C650.657 214.301 653.22 217.977 654.862 222.097C656.504 226.217 657.179 230.668 656.833 235.098L649.18 337.872Z" fill="#22C55E"/>
<path d="M589.354 262.415L556.018 255.552L571.644 217.98C572.579 214.341 574.899 211.227 578.094 209.321C581.289 207.415 585.098 206.872 588.687 207.812C592.276 208.752 595.351 211.098 597.237 214.335C599.124 217.573 599.667 221.437 598.75 225.08L589.354 262.415Z" fill="#22C55E"/>
<path d="M632.05 275.156L630.046 228.542C628.526 219.779 633.47 211.496 641.074 210.142C648.679 208.793 656.105 214.87 657.632 223.697L665.165 267.254L632.05 275.156Z" fill="#22C55E"/>
<path d="M646.716 332.292C658.631 378.333 659.93 436.87 656.716 500.723L640.716 498.694L611.716 376.936L595.716 500.723L577.716 499.708C572.339 432.711 567.103 375.196 575.716 337.365L646.716 332.292Z" fill="#2F2E41"/>
<path d="M628.289 184.138C623.707 189.091 615.198 186.432 614.601 179.667C614.554 179.141 614.557 178.613 614.611 178.088C614.919 175.091 616.625 172.371 616.217 169.206C616.124 168.419 615.835 167.668 615.377 167.026C611.725 162.065 603.154 169.245 599.708 164.754C597.595 162 600.079 157.664 598.458 154.587C596.318 150.524 589.979 152.528 586.004 150.304C581.581 147.828 581.846 140.943 584.757 136.755C588.308 131.648 594.533 128.923 600.68 128.53C606.828 128.137 612.933 129.823 618.673 132.093C625.194 134.671 631.66 138.235 635.673 144.053C640.554 151.128 641.023 160.64 638.583 168.914C637.098 173.946 632.031 180.094 628.289 184.138Z" fill="#2F2E41"/>
<path d="M469 416.894H339C337.288 416.903 335.642 416.223 334.424 415.003C333.205 413.783 332.513 412.122 332.5 410.385V115.966C332.513 114.228 333.205 112.568 334.424 111.347C335.642 110.127 337.288 109.447 339 109.456H469C470.712 109.447 472.358 110.127 473.576 111.347C474.795 112.568 475.487 114.228 475.5 115.966V410.385C475.487 412.122 474.795 413.783 473.576 415.003C472.358 416.223 470.712 416.903 469 416.894Z" fill="white"/>
<path d="M475.5 204.721H332.5V206.75H475.5V204.721Z" fill="#CCCCCC"/>
<path d="M476 320.503H333V322.532H476V320.503Z" fill="#CCCCCC"/>
<path d="M379.5 109.456H377.5V417.909H379.5V109.456Z" fill="#CCCCCC"/>
<path d="M429.5 109.456H427.5V417.909H429.5V109.456Z" fill="#CCCCCC"/>
<path d="M228.375 189.867C271.108 189.867 305.75 154.718 305.75 111.359C305.75 67.9999 271.108 32.8505 228.375 32.8505C185.642 32.8505 151 67.9999 151 111.359C151 154.718 185.642 189.867 228.375 189.867Z" fill="#22C55E"/>
<path d="M260.431 145.566H196.32C195.147 145.565 194.024 145.092 193.195 144.251C192.366 143.41 191.899 142.27 191.898 141.08V101.826C191.9 100.636 192.366 99.496 193.195 98.655C194.024 97.8139 195.148 97.3409 196.32 97.3396H260.431C261.603 97.3409 262.727 97.8139 263.556 98.655C264.385 99.496 264.851 100.636 264.852 101.826V141.08C264.851 142.27 264.385 143.41 263.556 144.251C262.727 145.092 261.603 145.565 260.431 145.566ZM196.32 101.826V141.08H260.434L260.431 101.826L196.32 101.826Z" fill="white"/>
<path d="M248.272 101.826H208.479V83.881C208.479 70.8836 216.847 61.45 228.375 61.45C239.904 61.45 248.272 70.8836 248.272 83.881L248.272 101.826ZM212.9 97.3396H243.85V83.881C243.85 73.3155 237.487 65.9362 228.375 65.9362C219.264 65.9362 212.9 73.3156 212.9 83.881L212.9 97.3396Z" fill="white"/>
<path d="M228.375 124.818C230.817 124.818 232.797 122.809 232.797 120.331C232.797 117.854 230.817 115.845 228.375 115.845C225.933 115.845 223.954 117.854 223.954 120.331C223.954 122.809 225.933 124.818 228.375 124.818Z" fill="white"/>
<ellipse rx="16.2951" ry="16.2951" transform="matrix(0.717316 -0.696748 -0.686245 -0.727371 126.186 245.296)" fill="#22C55E"/>
<ellipse rx="12.1745" ry="12.1745" transform="matrix(0.717316 -0.696748 -0.686245 -0.727371 129.115 206.933)" fill="#22C55E"/>
<ellipse rx="8.24122" ry="8.24122" transform="matrix(0.717316 -0.696748 -0.686245 -0.727371 99.1337 219.078)" fill="#22C55E"/>
<ellipse rx="6.74281" ry="6.74282" transform="matrix(0.717316 -0.696748 -0.686245 -0.727371 158.085 205.172)" fill="#22C55E"/>
</g>
<defs>
<clipPath id="clip0_7_33">
<rect width="870" height="527.757" fill="white" transform="translate(0 0.381805)"/>
</clipPath>
</defs>
</svg>
